# xmcd
#
# Track frame offsets: 
#        150
#        14670
#        30877
#        42860
#        57602
#        71117
#        83750
#        98677
#        112035
#        125405
#        138125
#        153570
#        165412
#        179267
#
# Disc length: 2553 seconds
#
# Revision: 2
# Processed by: cddbd v1.5.2PL0 Copyright (c) Steve Scherf et al.
# Submitted via: ExactAudioCopy v1.1
#
DISCID=b409f70e
DTITLE=Dave Dudley - Im Stau
DYEAR=1991
DGENRE=Country
TTITLE0=Im Stau
TTITLE1=Sunday Here In Deutschland
TTITLE2=Lotsa Things I'm Gonna Do In Texas
TTITLE3=Somewhere In L.A.
TTITLE4=Cowboy Hat
TTITLE5=In The Northwoods
TTITLE6=Mountain Dew
TTITLE7=Us Ol' Truckers (...Don't Like Rockin' While We Roll)
TTITLE8=Black And Blue
TTITLE9=Tavern In Our Town
TTITLE10=Hey Hello Highway
TTITLE11=Somewher Between Big 'D' And San Antone
TTITLE12=Deep In The Heart Of Texas
TTITLE13=As Of Now
EXTD=YEAR: 1991
EXTT0=
EXTT1=
EXTT2=
EXTT3=
EXTT4=
EXTT5=
EXTT6=
EXTT7=
EXTT8=
EXTT9=
EXTT10=
EXTT11=
EXTT12=
EXTT13=
PLAYORDER=
